<?xml version="1.0" encoding="UTF-8" standalone="no"?>
<!DOCTYPE svg PUBLIC "-//W3C//DTD SVG 1.1//EN" "http://www.w3.org/Graphics/SVG/1.1/DTD/svg11.dtd">
<svg width="100%" height="100%" viewBox="0 0 1024 1024" version="1.1" xmlns="http://www.w3.org/2000/svg" xmlns:xlink="http://www.w3.org/1999/xlink" xml:space="preserve" xmlns:serif="http://www.serif.com/" style="fill-rule:evenodd;clip-rule:evenodd;stroke-linecap:round;stroke-linejoin:round;stroke-miterlimit:1.5;">
    <g transform="matrix(2.22816,0,0,2.09858,-667.94,-344.894)">
        <path d="M304.26,208.038L305.222,521.484L441.508,588.55L600.294,527.074L595.085,213.323L456.857,169.111L304.26,208.038Z" style="fill:rgb(20,22,29);stroke:rgb(8,8,16);stroke-width:4.62px;"/>
    </g>
    <g transform="matrix(2.22816,0,0,2.09858,-667.94,-344.894)">
        <path d="M484.643,379.09L485.907,575.201L618.739,647.53L754.606,576.588L754.855,385.376L621.898,330.3L484.643,379.09Z" style="fill:rgb(70,47,31);stroke:rgb(7,7,15);stroke-width:4.62px;"/>
    </g>
    <g transform="matrix(2.22816,0,0,2.09858,262.328,-531.52)">
        <path d="M69.296,469.554C69.296,469.554 182.39,426.706 204.769,421.402L335.449,475.619L207.309,529.53L69.296,469.554Z" style="fill:rgb(77,115,44);"/>
    </g>
    <g transform="matrix(4.36366,0,0,2.09858,-2673.32,-355.133)">
        <path d="M778.8,505.914C779.081,510.139 843.821,439.95 843.821,439.95L844.038,391.544L775.976,446.875C777.098,444.999 778.534,501.917 778.8,505.914Z" style="fill:rgb(28,72,38);"/>
    </g>
    <g transform="matrix(4.36008,0,0,2.09858,-2955.88,-294.725)">
        <path d="M773.856,433.411C775.148,439.616 844.573,477.542 844.438,477.489L844.504,416.427L773.521,356.719C773.706,355.782 772.908,428.854 773.856,433.411Z" style="fill:rgb(28,72,38);"/>
    </g>
    <g transform="matrix(2.22816,0,0,2.09412,-667.94,-342.275)">
        <path d="M309.41,210.595L444.426,258.73L441.289,583.011C441.289,583.011 311.37,523.859 310.708,517.893C310.045,511.928 309.41,210.595 309.41,210.595Z" style="fill:rgb(30,31,38);"/>
    </g>
    <g transform="matrix(2.22816,0,0,2.09858,-185.061,-385.873)">
        <path d="M116.525,279.527L204.617,309.483L203.485,326.978L116.294,296.702L116.525,279.527" style="fill:rgb(8,8,15);"/>
    </g>
    <g transform="matrix(2.22816,0,0,2.09858,-185.061,-301.93)">
        <path d="M116.525,279.527L204.617,309.483L203.485,326.978L116.294,296.702L116.525,279.527" style="fill:rgb(8,8,15);"/>
    </g>
    <g transform="matrix(2.22816,0,0,2.09858,-185.061,-217.987)">
        <path d="M116.525,279.527L204.617,309.483L203.485,326.978L116.294,296.702L116.525,279.527" style="fill:rgb(8,8,15);"/>
    </g>
    <g transform="matrix(2.05562,0,0,2.82668,-46.0754,-475.058)">
        <path d="M95.904,372.25C93.443,372.354 91.1,373.053 89.247,374.236C59.174,393.314 86.509,430.44 117.307,422.254C117.955,422.081 118.577,421.859 119.163,421.592C141.441,411.393 130.747,370.72 95.904,372.25Z" style="fill:rgb(74,76,83);"/>
    </g>
    <g transform="matrix(1.01686,0,0,1.19508,59.9206,160.436)">
        <path d="M111.655,377.944C101.527,372.049 87.708,374.201 80.689,382.765C61.765,406.002 83.563,447.686 115.648,444.707C123.694,443.987 130.462,439.259 132.86,432.685C138.678,416.671 129.929,388.651 111.655,377.944Z" style="fill:rgb(51,105,54);"/>
    </g>
</svg>
